<svg width="491" height="73" viewBox="0 0 491 73" fill="none" xmlns="http://www.w3.org/2000/svg">
<path d="M12.7308 71H0.646853V1.98951H12.7308V30.5H43.3182V1.98951H55.4021V71H43.3182V41.7343H12.7308V71ZM89.8778 72.2273C76.0002 72.2273 66.2764 62.1259 66.2764 47.6818C66.2764 33.049 75.8114 22.9476 89.5002 22.9476C103.472 22.9476 112.346 32.2937 112.346 46.8322V50.3252L77.2275 50.4196C78.0771 58.6329 82.4198 62.7867 90.0667 62.7867C96.3918 62.7867 100.546 60.3322 101.867 55.8951H112.535C110.553 66.0909 102.056 72.2273 89.8778 72.2273ZM89.5946 32.3881C82.7974 32.3881 78.6436 36.0699 77.5107 43.0559H100.923C100.923 36.6364 96.4862 32.3881 89.5946 32.3881ZM134.981 72.2273C125.068 72.2273 119.026 66.4685 119.026 57.6888C119.026 49.0979 125.257 43.7168 136.303 42.8671L150.275 41.8287V40.7902C150.275 34.465 146.498 31.9161 140.645 31.9161C133.848 31.9161 130.072 34.7483 130.072 39.6573H120.254C120.254 29.5559 128.561 22.9476 141.212 22.9476C153.768 22.9476 161.509 29.7448 161.509 42.6783V71H151.407L150.558 64.1084C148.575 68.9231 142.25 72.2273 134.981 72.2273ZM138.757 63.542C145.837 63.542 150.369 59.2937 150.369 52.1189V49.6643L140.645 50.4196C133.47 51.0804 130.733 53.4406 130.733 57.2168C130.733 61.465 133.565 63.542 138.757 63.542ZM184.435 71H173.012V0.762236H184.435V71ZM210.3 71H198.216V1.98951H210.3V30.5H240.888V1.98951H252.972V71H240.888V41.7343H210.3V71ZM298.21 24.3636H309.727V71H299.059L298.21 64.7692C295.377 69.2063 289.335 72.2273 283.105 72.2273C272.342 72.2273 266.017 64.958 266.017 53.535V24.3636H277.535V49.4755C277.535 58.3497 281.028 61.9371 287.447 61.9371C294.717 61.9371 298.21 57.6888 298.21 48.8147V24.3636ZM333.14 71H321.623V24.3636H332.291L333.235 30.4056C336.161 25.6853 341.826 22.9476 348.151 22.9476C359.857 22.9476 365.899 30.2168 365.899 42.3007V71H354.382V45.0385C354.382 37.2028 350.511 33.4266 344.563 33.4266C337.483 33.4266 333.14 38.3357 333.14 45.8881V71ZM393.075 71H381.558V33.993H372.589V24.3636H381.558V9.82517H393.075V24.3636H402.138V33.993H393.075V71ZM429.701 72.2273C415.823 72.2273 406.1 62.1259 406.1 47.6818C406.1 33.049 415.635 22.9476 429.323 22.9476C443.296 22.9476 452.17 32.2937 452.17 46.8322V50.3252L417.051 50.4196C417.9 58.6329 422.243 62.7867 429.89 62.7867C436.215 62.7867 440.369 60.3322 441.691 55.8951H452.358C450.376 66.0909 441.879 72.2273 429.701 72.2273ZM429.418 32.3881C422.621 32.3881 418.467 36.0699 417.334 43.0559H440.747C440.747 36.6364 436.31 32.3881 429.418 32.3881ZM490.653 24.1748V34.8427H486.405C478.097 34.8427 472.905 39.2797 472.905 48.3427V71H461.387V24.458H472.244L472.905 31.2552C474.887 26.6294 479.325 23.514 485.555 23.514C487.16 23.514 488.765 23.7028 490.653 24.1748Z" fill="url(#paint0_linear_213_2)"/>
<defs>
<linearGradient id="paint0_linear_213_2" x1="-7" y1="-29" x2="492.612" y2="72.9047" gradientUnits="userSpaceOnUse">
<stop stop-color="#4ADE80"/>
<stop offset="0.5" stop-color="#86EFAC"/>
<stop offset="1" stop-color="#22C55E"/>
</linearGradient>
</defs>
</svg>
